<svg width="400" height="300" viewBox="0 0 400 300" xmlns="http://www.w3.org/2000/svg">
  <defs>
    <linearGradient id="devflowGrad" x1="0%" y1="0%" x2="100%" y2="100%">
      <stop offset="0%" style="stop-color:#4facfe;stop-opacity:1" />
      <stop offset="100%" style="stop-color:#00f2fe;stop-opacity:1" />
    </linearGradient>
  </defs>
  <rect width="400" height="300" fill="url(#devflowGrad)"/>
  
  <!-- Main Dashboard -->
  <rect x="30" y="40" width="340" height="220" rx="12" fill="#2c3e50"/>
  <rect x="40" y="50" width="320" height="30" rx="6" fill="#34495e"/>
  
  <!-- Header -->
  <circle cx="55" cy="65" r="6" fill="#e74c3c"/>
  <circle cx="70" cy="65" r="6" fill="#f39c12"/>
  <circle cx="85" cy="65" r="6" fill="#27ae60"/>
  <text x="110" y="70" font-family="Arial" font-size="12" fill="#ecf0f1">DevFlow - Project Dashboard</text>
  
  <!-- Kanban Board -->
  <rect x="50" y="90" width="90" height="160" rx="6" fill="#34495e"/>
  <rect x="55" y="95" width="80" height="20" rx="4" fill="#3498db"/>
  <text x="60" y="107" font-family="Arial" font-size="10" fill="white">To Do</text>
  
  <!-- Task cards -->
  <rect x="60" y="120" width="70" height="25" rx="4" fill="#ecf0f1"/>
  <text x="65" y="130" font-family="Arial" font-size="8" fill="#2c3e50">User Auth</text>
  <text x="65" y="138" font-family="Arial" font-size="7" fill="#7f8c8d">Frontend</text>
  
  <rect x="60" y="150" width="70" height="25" rx="4" fill="#ecf0f1"/>
  <text x="65" y="160" font-family="Arial" font-size="8" fill="#2c3e50">API Routes</text>
  <text x="65" y="168" font-family="Arial" font-size="7" fill="#7f8c8d">Backend</text>
  
  <!-- In Progress Column -->
  <rect x="150" y="90" width="90" height="160" rx="6" fill="#34495e"/>
  <rect x="155" y="95" width="80" height="20" rx="4" fill="#f39c12"/>
  <text x="160" y="107" font-family="Arial" font-size="10" fill="white">In Progress</text>
  
  <rect x="160" y="120" width="70" height="25" rx="4" fill="#ecf0f1"/>
  <text x="165" y="130" font-family="Arial" font-size="8" fill="#2c3e50">Database</text>
  <text x="165" y="138" font-family="Arial" font-size="7" fill="#7f8c8d">Backend</text>
  
  <!-- Done Column -->
  <rect x="250" y="90" width="90" height="160" rx="6" fill="#34495e"/>
  <rect x="255" y="95" width="80" height="20" rx="4" fill="#27ae60"/>
  <text x="260" y="107" font-family="Arial" font-size="10" fill="white">Done</text>
  
  <rect x="260" y="120" width="70" height="25" rx="4" fill="#ecf0f1"/>
  <text x="265" y="130" font-family="Arial" font-size="8" fill="#2c3e50">Setup</text>
  <text x="265" y="138" font-family="Arial" font-size="7" fill="#7f8c8d">DevOps</text>
  
  <rect x="260" y="150" width="70" height="25" rx="4" fill="#ecf0f1"/>
  <text x="265" y="160" font-family="Arial" font-size="8" fill="#2c3e50">Design</text>
  <text x="265" y="168" font-family="Arial" font-size="7" fill="#7f8c8d">UI/UX</text>
  
  <!-- GitHub Integration -->
  <rect x="350" y="90" width="15" height="160" rx="6" fill="#34495e"/>
  <circle cx="357" cy="110" r="6" fill="#ecf0f1"/>
  <text x="354" y="113" font-family="Arial" font-size="8" fill="#2c3e50">⚡</text>
  
  <circle cx="357" cy="130" r="6" fill="#ecf0f1"/>
  <text x="354" y="133" font-family="Arial" font-size="8" fill="#2c3e50">📊</text>
  
  <circle cx="357" cy="150" r="6" fill="#ecf0f1"/>
  <text x="354" y="153" font-family="Arial" font-size="8" fill="#2c3e50">🔗</text>
  
  <!-- Team avatars -->
  <circle cx="60" cy="200" r="12" fill="#e74c3c"/>
  <text x="56" y="205" font-family="Arial" font-size="10" fill="white">JD</text>
  
  <circle cx="80" cy="200" r="12" fill="#9b59b6"/>
  <text x="76" y="205" font-family="Arial" font-size="10" fill="white">SM</text>
  
  <circle cx="100" cy="200" r="12" fill="#1abc9c"/>
  <text x="96" y="205" font-family="Arial" font-size="10" fill="white">AL</text>
  
  <!-- Sprint info -->
  <rect x="160" y="190" width="70" height="30" rx="4" fill="#2c3e50"/>
  <text x="165" y="200" font-family="Arial" font-size="8" fill="#ecf0f1">Sprint 3</text>
  <text x="165" y="210" font-family="Arial" font-size="7" fill="#95a5a6">5 days left</text>
  
  <!-- Progress bar -->
  <rect x="260" y="200" width="70" height="8" rx="4" fill="#34495e"/>
  <rect x="260" y="200" width="45" height="8" rx="4" fill="#27ae60"/>
</svg>